<svg width="15" height="15" viewBox="0 0 15 15" fill="none" xmlns="http://www.w3.org/2000/svg">
<g opacity="0.6">
<path d="M14.4486 13.1603H1.10727C0.998976 13.1603 0.890686 13.2686 0.890686 13.3769C0.890686 14.0049 1.41048 14.5247 2.03856 14.5247H13.5389C14.167 14.5247 14.6868 14.0049 14.6868 13.3769C14.6652 13.2686 14.5785 13.1603 14.4486 13.1603Z" fill="#73738D"/>
<path d="M13.604 9.67288C13.1275 9.32635 12.4344 9.28303 11.893 9.54293C11.3515 9.80283 10.7018 9.80283 10.1387 9.54293C9.68387 9.32635 9.0991 9.32635 8.64428 9.54293C8.10283 9.80283 7.45309 9.80283 6.88999 9.54293C6.43517 9.32635 5.8504 9.32635 5.39558 9.54293C4.85414 9.80283 4.2044 9.80283 3.64129 9.54293C3.1215 9.30469 2.47176 9.32635 1.99528 9.62956C1.97362 9.62956 1.95197 9.65122 1.95197 9.67288V12.7267H13.604V9.67288Z" fill="#73738D"/>
<path d="M3.85782 9.1534C4.29098 9.34833 4.81077 9.34833 5.22227 9.1534C5.80704 8.87185 6.52175 8.87185 7.08486 9.1534C7.51802 9.34833 8.03781 9.34833 8.44931 9.1534C9.03407 8.87185 9.74879 8.87185 10.3336 9.1534C10.7667 9.34833 11.2865 9.34833 11.698 9.1534C12.2828 8.87185 13.0191 8.87185 13.5823 9.17506V8.89351C13.5823 7.9189 12.7809 7.11755 11.8063 7.11755H3.74953C2.77492 7.11755 1.97357 7.9189 1.97357 8.89351V9.17506C2.53668 8.89351 3.25139 8.87185 3.85782 9.1534Z" fill="#73738D"/>
<path d="M11.1566 5.16841C11.1566 4.73525 10.8101 4.36707 10.3552 4.36707C9.92208 4.36707 9.55389 4.71359 9.55389 5.16841V6.68447H11.1566V5.16841Z" fill="#73738D"/>
<path d="M6.00198 5.16841C6.00198 4.73525 5.6338 4.36707 5.20064 4.36707C4.76748 4.36707 4.39929 4.71359 4.39929 5.16841V6.68447H6.00198V5.16841Z" fill="#73738D"/>
<path d="M8.57931 4.23701C8.57931 3.80385 8.21113 3.43567 7.77797 3.43567C7.34481 3.43567 6.97662 3.80385 6.97662 4.23701V6.68437H8.57931V4.23701Z" fill="#73738D"/>
<path d="M10.3552 3.80396C10.7884 3.80396 11.1349 3.45744 11.1349 3.02428C11.1349 2.67775 10.6801 1.91972 10.5285 1.70314C10.4852 1.63816 10.4202 1.59485 10.3552 1.59485C10.2903 1.59485 10.2036 1.63816 10.182 1.70314C10.0304 1.91972 9.57556 2.67775 9.57556 3.02428C9.57556 3.45744 9.92209 3.80396 10.3552 3.80396Z" fill="#73738D"/>
<path d="M5.20065 3.80396C5.63381 3.80396 5.98033 3.45744 5.98033 3.02428C5.98033 2.67775 5.52552 1.91972 5.37391 1.70314C5.33059 1.63816 5.26562 1.59485 5.20065 1.59485C5.13567 1.59485 5.04904 1.63816 5.02738 1.70314C4.87578 1.91972 4.42096 2.67775 4.42096 3.02428C4.42096 3.45744 4.76749 3.80396 5.20065 3.80396Z" fill="#73738D"/>
<path d="M7.77792 2.87257C8.21108 2.87257 8.5576 2.52604 8.5576 2.09288C8.5576 1.74635 8.10279 1.00998 7.95118 0.771742C7.92952 0.706768 7.84289 0.663452 7.77792 0.663452C7.71294 0.663452 7.62631 0.706768 7.60465 0.771742C7.45305 0.988322 6.99823 1.74635 6.99823 2.09288C6.99823 2.50438 7.34476 2.87257 7.77792 2.87257Z" fill="#73738D"/>
</g>
</svg>
