<svg width="7" height="8" viewBox="0 0 7 8" fill="none" xmlns="http://www.w3.org/2000/svg">
<path d="M4.29571 4.09106L6.51132 1.87544C6.71274 1.67402 6.71274 1.34266 6.51132 1.14124C6.3099 0.939819 5.97854 0.939819 5.77712 1.14124L3.56151 3.35685L1.34589 1.14124C1.14447 0.939819 0.813108 0.939819 0.611688 1.14124C0.510979 1.24195 0.459 1.37514 0.459 1.50834C0.459 1.64154 0.510979 1.77473 0.611688 1.87544L2.8273 4.09106L0.611688 6.30667C0.510979 6.40738 0.459 6.54057 0.459 6.67377C0.459 6.80697 0.510979 6.94016 0.611688 7.04087C0.813108 7.24229 1.14447 7.24229 1.34589 7.04087L3.56151 4.82526L5.77712 7.04087C5.97854 7.24229 6.3099 7.24229 6.51132 7.04087C6.71274 6.83945 6.71274 6.50809 6.51132 6.30667L4.29571 4.09106Z" fill="white"/>
</svg>
