<svg width="17" height="18" viewBox="0 0 17 18" fill="none" xmlns="http://www.w3.org/2000/svg">
<g opacity="0.8" clip-path="url(#clip0)">
<path d="M14.2957 9.09106L16.5113 6.87544C16.7127 6.67402 16.7127 6.34266 16.5113 6.14124C16.3099 5.93982 15.9785 5.93982 15.7771 6.14124L13.5615 8.35685L11.3459 6.14124C11.1445 5.93982 10.8131 5.93982 10.6117 6.14124C10.511 6.24195 10.459 6.37514 10.459 6.50834C10.459 6.64154 10.511 6.77473 10.6117 6.87544L12.8273 9.09106L10.6117 11.3067C10.511 11.4074 10.459 11.5406 10.459 11.6738C10.459 11.807 10.511 11.9402 10.6117 12.0409C10.8131 12.2423 11.1445 12.2423 11.3459 12.0409L13.5615 9.82526L15.7771 12.0409C15.9785 12.2423 16.3099 12.2423 16.5113 12.0409C16.7127 11.8395 16.7127 11.5081 16.5113 11.3067L14.2957 9.09106Z" fill="white"/>
</g>
<defs>
<clipPath id="clip0">
<rect width="16.6333" height="16.6333" fill="white" transform="translate(0.0631714 0.774902)"/>
</clipPath>
</defs>
</svg>
