<svg width="13" height="47" viewBox="0 0 13 47" fill="none" xmlns="http://www.w3.org/2000/svg">
<mask id="path-1-outside-1" maskUnits="userSpaceOnUse" x="-0.24295" y="0.0812988" width="13" height="47" fill="black">
<rect fill="white" x="-0.24295" y="0.0812988" width="13" height="47"/>
<path fill-rule="evenodd" clip-rule="evenodd" d="M7.01819 10.2143C7.01819 15.2502 8.18878 19.3469 9.62761 19.3469C11.0664 19.3469 12.2369 15.2502 12.2369 10.2143C12.2369 5.17838 11.0664 1.0813 9.62761 1.0813C8.18878 1.0813 7.01819 5.17838 7.01819 10.2143ZM7.80101 10.2143C7.80101 6.68878 8.62033 3.82117 9.62761 3.82117C10.6348 3.82117 11.4541 6.68878 11.4541 10.2143C11.4541 13.7394 10.6348 16.6071 9.62761 16.6071C8.62033 16.6071 7.80101 13.7394 7.80101 10.2143ZM10.2813 39.438H7.92383C7.92896 39.5264 7.93166 39.618 7.93166 39.7117C7.93166 43.4889 7.05337 46.561 5.97461 46.561C4.89594 46.561 4.01756 43.4889 4.01756 39.7117C4.01756 39.618 4.02026 39.5264 4.02539 39.438H1.67031C1.16671 39.438 0.75705 38.0042 0.75705 36.2416C0.75705 35.3061 0.87344 34.4205 1.07641 33.8121C1.0895 33.772 1.10355 33.7355 1.11817 33.7024C1.88426 31.3626 2.32269 27.9963 2.32269 24.4417V19.3457C2.32269 12.2954 3.96191 6.55981 5.97581 6.55981C6.05933 6.55981 6.14963 6.56517 6.23315 6.61467C6.44654 6.73875 6.59064 7.44579 6.55509 8.19095C6.51964 8.93611 6.314 9.44046 6.10472 9.31606C6.07085 9.29678 6.03428 9.29799 5.99964 9.29913C5.99157 9.29941 5.98361 9.29967 5.97581 9.29967C4.39355 9.29967 3.10551 13.8058 3.10551 19.3457V24.4417C3.10551 28.8549 2.55279 33.0305 1.59052 35.8961L1.58651 35.9075C1.58027 35.9252 1.57443 35.9418 1.56749 35.9583C1.55344 36.0205 1.53987 36.1155 1.53987 36.2416C1.53987 36.4898 1.5994 36.6981 1.67031 36.6981H10.2813C10.3523 36.6981 10.4119 36.4898 10.4119 36.2416C10.4119 36.1135 10.3983 36.0205 10.3837 35.9583C10.3758 35.9383 10.369 35.9182 10.3612 35.8961C9.39835 33.0285 8.84621 28.8549 8.84621 24.4417V22.4511C8.84621 21.6949 9.02156 21.0811 9.23762 21.0811C9.45368 21.0811 9.62903 21.6949 9.62903 22.4511V24.4417C9.62903 27.9983 10.0679 31.3663 10.8351 33.7081C10.8491 33.7409 10.8627 33.7757 10.8752 33.8141C11.0783 34.4205 11.1947 35.3061 11.1947 36.2416C11.1947 38.0042 10.785 39.438 10.2813 39.438ZM4.79256 39.438H7.15666C7.15153 39.5264 7.14884 39.618 7.14884 39.7117C7.14884 41.9785 6.62173 43.8213 5.97461 43.8213C5.32748 43.8213 4.80038 41.9785 4.80038 39.7117C4.80038 39.618 4.79769 39.5264 4.79256 39.438Z"/>
</mask>
<path fill-rule="evenodd" clip-rule="evenodd" d="M7.01819 10.2143C7.01819 15.2502 8.18878 19.3469 9.62761 19.3469C11.0664 19.3469 12.2369 15.2502 12.2369 10.2143C12.2369 5.17838 11.0664 1.0813 9.62761 1.0813C8.18878 1.0813 7.01819 5.17838 7.01819 10.2143ZM7.80101 10.2143C7.80101 6.68878 8.62033 3.82117 9.62761 3.82117C10.6348 3.82117 11.4541 6.68878 11.4541 10.2143C11.4541 13.7394 10.6348 16.6071 9.62761 16.6071C8.62033 16.6071 7.80101 13.7394 7.80101 10.2143ZM10.2813 39.438H7.92383C7.92896 39.5264 7.93166 39.618 7.93166 39.7117C7.93166 43.4889 7.05337 46.561 5.97461 46.561C4.89594 46.561 4.01756 43.4889 4.01756 39.7117C4.01756 39.618 4.02026 39.5264 4.02539 39.438H1.67031C1.16671 39.438 0.75705 38.0042 0.75705 36.2416C0.75705 35.3061 0.87344 34.4205 1.07641 33.8121C1.0895 33.772 1.10355 33.7355 1.11817 33.7024C1.88426 31.3626 2.32269 27.9963 2.32269 24.4417V19.3457C2.32269 12.2954 3.96191 6.55981 5.97581 6.55981C6.05933 6.55981 6.14963 6.56517 6.23315 6.61467C6.44654 6.73875 6.59064 7.44579 6.55509 8.19095C6.51964 8.93611 6.314 9.44046 6.10472 9.31606C6.07085 9.29678 6.03428 9.29799 5.99964 9.29913C5.99157 9.29941 5.98361 9.29967 5.97581 9.29967C4.39355 9.29967 3.10551 13.8058 3.10551 19.3457V24.4417C3.10551 28.8549 2.55279 33.0305 1.59052 35.8961L1.58651 35.9075C1.58027 35.9252 1.57443 35.9418 1.56749 35.9583C1.55344 36.0205 1.53987 36.1155 1.53987 36.2416C1.53987 36.4898 1.5994 36.6981 1.67031 36.6981H10.2813C10.3523 36.6981 10.4119 36.4898 10.4119 36.2416C10.4119 36.1135 10.3983 36.0205 10.3837 35.9583C10.3758 35.9383 10.369 35.9182 10.3612 35.8961C9.39835 33.0285 8.84621 28.8549 8.84621 24.4417V22.4511C8.84621 21.6949 9.02156 21.0811 9.23762 21.0811C9.45368 21.0811 9.62903 21.6949 9.62903 22.4511V24.4417C9.62903 27.9983 10.0679 31.3663 10.8351 33.7081C10.8491 33.7409 10.8627 33.7757 10.8752 33.8141C11.0783 34.4205 11.1947 35.3061 11.1947 36.2416C11.1947 38.0042 10.785 39.438 10.2813 39.438ZM4.79256 39.438H7.15666C7.15153 39.5264 7.14884 39.618 7.14884 39.7117C7.14884 41.9785 6.62173 43.8213 5.97461 43.8213C5.32748 43.8213 4.80038 41.9785 4.80038 39.7117C4.80038 39.618 4.79769 39.5264 4.79256 39.438Z" fill="#1943EF"/>
<path d="M7.92383 39.438V39.2301H7.70351L7.71626 39.45L7.92383 39.438ZM4.02539 39.438L4.23295 39.45L4.24571 39.2301H4.02539V39.438ZM1.07641 33.8121L1.27364 33.8779L1.27407 33.8766L1.07641 33.8121ZM1.11817 33.7024L1.30837 33.7864L1.31254 33.777L1.31576 33.7671L1.11817 33.7024ZM6.23315 6.61467L6.12714 6.79354L6.12863 6.79441L6.23315 6.61467ZM6.55509 8.19095L6.34741 8.18104L6.34741 8.18107L6.55509 8.19095ZM6.10472 9.31606L6.21098 9.1373L6.20754 9.13534L6.10472 9.31606ZM5.99964 9.29913L5.99277 9.09133L5.99257 9.09134L5.99964 9.29913ZM1.59052 35.8961L1.78659 35.9654L1.78762 35.9623L1.59052 35.8961ZM1.58651 35.9075L1.39046 35.8382L1.39038 35.8384L1.58651 35.9075ZM1.56749 35.9583L1.37574 35.8779L1.36869 35.8947L1.36467 35.9125L1.56749 35.9583ZM10.3837 35.9583L10.5861 35.9108L10.5827 35.8964L10.5773 35.8827L10.3837 35.9583ZM10.3612 35.8961L10.1641 35.9623L10.1653 35.9657L10.3612 35.8961ZM10.8351 33.7081L10.6375 33.7728L10.6404 33.7816L10.644 33.79L10.8351 33.7081ZM10.8752 33.8141L10.6775 33.8785L10.6781 33.8802L10.8752 33.8141ZM7.15666 39.438L7.36423 39.45L7.37699 39.2301H7.15666V39.438ZM4.79256 39.438V39.2301H4.57223L4.58499 39.45L4.79256 39.438ZM9.62761 19.139C9.37368 19.139 9.0851 18.9565 8.78526 18.5119C8.49043 18.0747 8.21659 17.4286 7.98326 16.6119C7.5174 14.9815 7.22611 12.7185 7.22611 10.2143H6.81027C6.81027 12.746 7.10427 15.0492 7.58342 16.7262C7.82259 17.5632 8.11118 18.2561 8.4405 18.7444C8.76482 19.2253 9.16213 19.5548 9.62761 19.5548V19.139ZM12.029 10.2143C12.029 12.7185 11.7377 14.9815 11.2719 16.6119C11.0386 17.4286 10.7648 18.0747 10.4699 18.5119C10.1701 18.9565 9.88154 19.139 9.62761 19.139V19.5548C10.0931 19.5548 10.4904 19.2253 10.8147 18.7444C11.144 18.2561 11.4326 17.5632 11.6718 16.7262C12.1509 15.0492 12.4449 12.746 12.4449 10.2143H12.029ZM9.62761 1.28922C9.88153 1.28922 10.1701 1.47175 10.4699 1.9164C10.7648 2.35362 11.0386 2.99978 11.2719 3.81644C11.7377 5.44693 12.029 7.71007 12.029 10.2143H12.4449C12.4449 7.68259 12.1509 5.37923 11.6718 3.70221C11.4326 2.86511 11.144 2.17226 10.8147 1.68391C10.4904 1.20298 10.0931 0.873382 9.62761 0.873382V1.28922ZM7.22611 10.2143C7.22611 7.71007 7.5174 5.44693 7.98326 3.81644C8.21659 2.99978 8.49043 2.35362 8.78527 1.9164C9.08511 1.47175 9.37369 1.28922 9.62761 1.28922V0.873382C9.16212 0.873382 8.76481 1.20298 8.4405 1.68391C8.11118 2.17226 7.82259 2.86511 7.58342 3.70221C7.10427 5.37923 6.81027 7.68259 6.81027 10.2143H7.22611ZM9.62761 3.61325C9.27002 3.61325 8.97558 3.86598 8.74488 4.20806C8.50917 4.55756 8.30495 5.04953 8.13666 5.63854C7.79927 6.8194 7.59309 8.43779 7.59309 10.2143H8.00892C8.00892 8.46527 8.2124 6.8871 8.53649 5.75278C8.69894 5.18421 8.88842 4.73893 9.08963 4.44057C9.29585 4.1348 9.48156 4.02908 9.62761 4.02908V3.61325ZM11.662 10.2143C11.662 8.43779 11.4559 6.81941 11.1185 5.63854C10.9502 5.04953 10.746 4.55756 10.5103 4.20807C10.2796 3.86599 9.98518 3.61325 9.62761 3.61325V4.02908C9.77363 4.02908 9.95932 4.13479 10.1655 4.44057C10.3667 4.73892 10.5562 5.1842 10.7186 5.75278C11.0427 6.8871 11.2462 8.46527 11.2462 10.2143H11.662ZM9.62761 16.815C9.98518 16.815 10.2796 16.5622 10.5103 16.2202C10.746 15.8707 10.9502 15.3787 11.1185 14.7897C11.4559 13.6089 11.662 11.9906 11.662 10.2143H11.2462C11.2462 11.9631 11.0427 13.5412 10.7186 14.6755C10.5562 15.244 10.3667 15.6893 10.1655 15.9877C9.95932 16.2934 9.77363 16.3992 9.62761 16.3992V16.815ZM7.59309 10.2143C7.59309 11.9906 7.79927 13.6089 8.13666 14.7897C8.30495 15.3787 8.50917 15.8707 8.74488 16.2202C8.97558 16.5623 9.27002 16.815 9.62761 16.815V16.3992C9.48156 16.3992 9.29585 16.2934 9.08963 15.9877C8.88842 15.6893 8.69894 15.244 8.53649 14.6755C8.2124 13.5412 8.00892 11.9631 8.00892 10.2143H7.59309ZM7.92383 39.6459H10.2813V39.2301H7.92383V39.6459ZM8.13957 39.7117C8.13957 39.614 8.13677 39.5184 8.1314 39.4259L7.71626 39.45C7.72116 39.5344 7.72374 39.6219 7.72374 39.7117H8.13957ZM5.97461 46.769C6.35009 46.769 6.66161 46.5034 6.90788 46.1382C7.15916 45.7656 7.37745 45.2402 7.55758 44.6099C7.91865 43.3465 8.13957 41.614 8.13957 39.7117H7.72374C7.72374 41.5865 7.50552 43.2787 7.15776 44.4957C6.98347 45.1055 6.77992 45.5843 6.56312 45.9057C6.34131 46.2346 6.13851 46.3531 5.97461 46.3531V46.769ZM3.80965 39.7117C3.80965 41.614 4.03059 43.3465 4.39167 44.6099C4.57181 45.2402 4.7901 45.7656 5.04138 46.1382C5.28764 46.5034 5.59915 46.769 5.97461 46.769V46.3531C5.81074 46.3531 5.60795 46.2346 5.38614 45.9057C5.16934 45.5843 4.96579 45.1055 4.7915 44.4957C4.44372 43.2787 4.22548 41.5865 4.22548 39.7117H3.80965ZM3.81782 39.4259C3.81245 39.5184 3.80965 39.614 3.80965 39.7117H4.22548C4.22548 39.6219 4.22806 39.5344 4.23295 39.45L3.81782 39.4259ZM1.67031 39.6459H4.02539V39.2301H1.67031V39.6459ZM0.549133 36.2416C0.549133 37.1366 0.6529 37.9558 0.824913 38.5579C0.910515 38.8575 1.01631 39.1151 1.14278 39.3027C1.26424 39.4828 1.43863 39.6459 1.67031 39.6459V39.2301C1.65018 39.2301 1.58452 39.214 1.48754 39.0702C1.39555 38.9338 1.30451 38.7228 1.22475 38.4436C1.06603 37.8881 0.964966 37.1092 0.964966 36.2416H0.549133ZM0.879178 33.7463C0.66669 34.3832 0.549133 35.2931 0.549133 36.2416H0.964966C0.964966 35.3192 1.08019 34.4578 1.27364 33.8779L0.879178 33.7463ZM0.927967 33.6185C0.910443 33.6581 0.893924 33.7011 0.878743 33.7477L1.27407 33.8766C1.28507 33.8429 1.29665 33.813 1.30837 33.7864L0.927967 33.6185ZM2.11477 24.4417C2.11477 27.9832 1.67754 31.3258 0.920572 33.6377L1.31576 33.7671C2.09099 31.3994 2.5306 28.0095 2.5306 24.4417H2.11477ZM2.11477 19.3457V24.4417H2.5306V19.3457H2.11477ZM5.97581 6.3519C5.36654 6.3519 4.83212 6.78391 4.38301 7.44991C3.92889 8.12334 3.52781 9.08395 3.19412 10.2518C2.52593 12.5902 2.11477 15.8068 2.11477 19.3457H2.5306C2.5306 15.8343 2.93906 12.6579 3.59395 10.366C3.9218 9.21863 4.30814 8.30471 4.72778 7.6824C5.15244 7.05266 5.57813 6.76773 5.97581 6.76773V6.3519ZM6.33916 6.43581C6.204 6.3557 6.06425 6.3519 5.97581 6.3519V6.76773C6.05442 6.76773 6.09527 6.77464 6.12715 6.79353L6.33916 6.43581ZM6.76277 8.20086C6.78125 7.81346 6.75336 7.43291 6.69119 7.12832C6.66019 6.97645 6.61941 6.83715 6.56805 6.72313C6.52017 6.61684 6.44871 6.4995 6.33767 6.43493L6.12863 6.79441C6.12429 6.79188 6.15086 6.80946 6.1889 6.89391C6.22347 6.97065 6.2565 7.07794 6.28375 7.21148C6.3381 7.47772 6.36448 7.82327 6.34741 8.18104L6.76277 8.20086ZM5.99848 9.49478C6.05948 9.53104 6.13196 9.55024 6.20948 9.54018C6.28441 9.53045 6.34567 9.4958 6.39222 9.45665C6.48036 9.38252 6.54248 9.27022 6.58796 9.15724C6.68185 8.92403 6.74444 8.58625 6.76277 8.20083L6.34741 8.18107C6.33029 8.54081 6.27233 8.82778 6.20222 9.00194C6.1657 9.09264 6.13496 9.12967 6.12457 9.13841C6.12185 9.14069 6.13244 9.13086 6.15593 9.12781C6.18201 9.12442 6.20228 9.13217 6.21097 9.13733L5.99848 9.49478ZM6.00651 9.50694C6.01576 9.50663 6.02081 9.50649 6.02527 9.5065C6.02933 9.50651 6.03034 9.50668 6.02954 9.50659C6.02859 9.50648 6.0251 9.50603 6.01999 9.50452C6.01471 9.50296 6.00844 9.50049 6.0019 9.49677L6.20754 9.13534C6.11512 9.08276 6.01916 9.09046 5.99277 9.09133L6.00651 9.50694ZM5.97581 9.50758C5.98766 9.50758 5.999 9.50719 6.00672 9.50693L5.99257 9.09134C5.98414 9.09162 5.97957 9.09175 5.97581 9.09175V9.50758ZM3.31342 19.3457C3.31342 16.5895 3.63408 14.0981 4.14723 12.3023C4.4042 11.403 4.70617 10.69 5.03219 10.2066C5.36322 9.71568 5.68604 9.50758 5.97581 9.50758V9.09175C5.47446 9.09175 5.04292 9.44692 4.68743 9.97406C4.32693 10.5086 4.01021 11.2683 3.7474 12.1881C3.22095 14.0304 2.89759 16.562 2.89759 19.3457H3.31342ZM3.31342 24.4417V19.3457H2.89759V24.4417H3.31342ZM1.78762 35.9623C2.75953 33.068 3.31342 28.868 3.31342 24.4417H2.89759C2.89759 28.8417 2.34606 32.993 1.39341 35.8299L1.78762 35.9623ZM1.78256 35.9767L1.78656 35.9654L1.39447 35.8269L1.39046 35.8382L1.78256 35.9767ZM1.75923 36.0387C1.76892 36.0156 1.77671 35.9933 1.78264 35.9765L1.39038 35.8384C1.38383 35.8571 1.37995 35.8679 1.37574 35.8779L1.75923 36.0387ZM1.74779 36.2416C1.74779 36.1302 1.7598 36.0506 1.7703 36.0041L1.36467 35.9125C1.34708 35.9905 1.33195 36.1008 1.33195 36.2416H1.74779ZM1.67031 36.4902C1.71522 36.4902 1.74867 36.5073 1.76745 36.5211C1.78477 36.5339 1.79242 36.5455 1.7932 36.5467C1.79433 36.5484 1.78743 36.5374 1.77842 36.5058C1.7612 36.4455 1.74779 36.3514 1.74779 36.2416H1.33195C1.33195 36.38 1.34831 36.5141 1.37858 36.6201C1.39331 36.6716 1.4146 36.7282 1.44683 36.7767C1.47313 36.8163 1.54445 36.9061 1.67031 36.9061V36.4902ZM10.2813 36.4902H1.67031V36.9061H10.2813V36.4902ZM10.2039 36.2416C10.2039 36.3514 10.1905 36.4455 10.1733 36.5058C10.1643 36.5373 10.1574 36.5483 10.1585 36.5466C10.1593 36.5454 10.167 36.5338 10.1843 36.5211C10.2031 36.5073 10.2365 36.4902 10.2813 36.4902V36.9061C10.4071 36.9061 10.4784 36.8165 10.5048 36.7768C10.5371 36.7283 10.5584 36.6716 10.5731 36.6201C10.6034 36.5141 10.6198 36.38 10.6198 36.2416H10.2039ZM10.1813 36.0059C10.1919 36.0512 10.2039 36.1281 10.2039 36.2416H10.6198C10.6198 36.0989 10.6047 35.9899 10.5861 35.9108L10.1813 36.0059ZM10.1653 35.9657C10.1717 35.9839 10.1806 36.0099 10.19 36.034L10.5773 35.8827C10.5711 35.8667 10.5664 35.8525 10.5571 35.8266L10.1653 35.9657ZM8.6383 24.4417C8.6383 28.868 9.19162 33.066 10.1641 35.9623L10.5583 35.8299C9.60509 32.991 9.05413 28.8417 9.05413 24.4417H8.6383ZM8.6383 22.4511V24.4417H9.05413V22.4511H8.6383ZM9.23762 20.8732C9.07801 20.8732 8.97217 20.9849 8.913 21.0725C8.84889 21.1675 8.79933 21.2912 8.76098 21.4254C8.68348 21.6967 8.6383 22.0593 8.6383 22.4511H9.05413C9.05413 22.0867 9.09663 21.7643 9.16081 21.5397C9.19331 21.4259 9.2281 21.3489 9.25764 21.3052C9.29211 21.2541 9.28921 21.2891 9.23762 21.2891V20.8732ZM9.83695 22.4511C9.83695 22.0593 9.79177 21.6967 9.71427 21.4254C9.67592 21.2912 9.62636 21.1675 9.56225 21.0725C9.50308 20.9849 9.39724 20.8732 9.23762 20.8732V21.2891C9.18604 21.2891 9.18314 21.2541 9.21761 21.3052C9.24715 21.3489 9.28194 21.4259 9.31443 21.5397C9.37862 21.7643 9.42112 22.0867 9.42112 22.4511H9.83695ZM9.83695 24.4417V22.4511H9.42112V24.4417H9.83695ZM11.0327 33.6434C10.2747 31.3294 9.83695 27.9852 9.83695 24.4417H9.42112C9.42112 28.0115 9.86122 31.4031 10.6375 33.7728L11.0327 33.6434ZM11.0729 33.7498C11.0581 33.7042 11.0422 33.6635 11.0262 33.6262L10.644 33.79C10.6561 33.8183 10.6673 33.8471 10.6775 33.8785L11.0729 33.7498ZM11.4026 36.2416C11.4026 35.2932 11.285 34.3832 11.0724 33.7481L10.6781 33.8802C10.8715 34.4578 10.9868 35.3191 10.9868 36.2416H11.4026ZM10.2813 39.6459C10.513 39.6459 10.6874 39.4828 10.8089 39.3027C10.9354 39.1151 11.0412 38.8575 11.1268 38.5579C11.2988 37.9558 11.4026 37.1366 11.4026 36.2416H10.9868C10.9868 37.1092 10.8857 37.8881 10.727 38.4436C10.6472 38.7228 10.5561 38.9338 10.4642 39.0702C10.3672 39.214 10.3015 39.2301 10.2813 39.2301V39.6459ZM7.15666 39.2301H4.79256V39.6459H7.15666V39.2301ZM7.35675 39.7117C7.35675 39.6219 7.35933 39.5344 7.36423 39.45L6.94909 39.4259C6.94373 39.5184 6.94092 39.614 6.94092 39.7117H7.35675ZM5.97461 44.0292C6.24217 44.0292 6.45081 43.8405 6.60346 43.6142C6.76112 43.3805 6.89505 43.0559 7.00431 42.6737C7.22362 41.9064 7.35675 40.8588 7.35675 39.7117H6.94092C6.94092 40.8313 6.8105 41.8386 6.60448 42.5594C6.50107 42.9212 6.38189 43.1991 6.25872 43.3817C6.13053 43.5717 6.03061 43.6134 5.97461 43.6134V44.0292ZM4.59246 39.7117C4.59246 40.8588 4.72559 41.9064 4.94491 42.6737C5.05417 43.0559 5.1881 43.3805 5.34576 43.6142C5.49841 43.8405 5.70705 44.0292 5.97461 44.0292V43.6134C5.9186 43.6134 5.81869 43.5717 5.6905 43.3817C5.56733 43.1991 5.44815 42.9212 5.34473 42.5594C5.13872 41.8386 5.0083 40.8313 5.0083 39.7117H4.59246ZM4.58499 39.45C4.58989 39.5344 4.59246 39.6219 4.59246 39.7117H5.0083C5.0083 39.614 5.00549 39.5184 5.00013 39.4259L4.58499 39.45Z" fill="#1943EF" mask="url(#path-1-outside-1)"/>
</svg>
