<svg width="18" height="18" viewBox="0 0 18 18" fill="none" xmlns="http://www.w3.org/2000/svg">
<g opacity="0.4">
<path d="M8.8721 15.5207C9.88244 15.5207 10.4347 14.806 10.4347 13.7989H7.30622C7.30622 14.806 7.8585 15.5207 8.8721 15.5207Z" fill="#73738D"/>
<path d="M13.9443 12.1489C13.444 11.4894 12.4597 11.1028 12.4597 8.14978C12.4597 5.11874 11.1212 3.90048 9.87372 3.6081C9.75677 3.57886 9.6723 3.53988 9.6723 3.41643V3.32221C9.6723 2.88689 9.31495 2.51978 8.87962 2.52303C8.4443 2.51654 8.08694 2.88689 8.08694 3.32221V3.41643C8.08694 3.53663 8.00247 3.57886 7.88552 3.6081C6.63477 3.90373 5.29956 5.11874 5.29956 8.14978C5.29956 11.1028 4.3152 11.4862 3.8149 12.1489C3.49328 12.5745 3.79866 13.182 4.33144 13.182H13.431C13.9606 13.182 14.266 12.5713 13.9443 12.1489Z" fill="#73738D"/>
</g>
<circle cx="12.3415" cy="3.47895" r="3.11875" fill="#1943EF" stroke="white" stroke-width="0.693056"/>
</svg>
