<svg width="26" height="25" viewBox="0 0 26 25" fill="none" xmlns="http://www.w3.org/2000/svg">
<path d="M15.438 19.8126L14.7719 17.2315C14.6887 16.9262 14.3834 16.732 14.0781 16.8152C13.7728 16.8985 13.5785 17.2038 13.6618 17.5091L14.3279 20.1179C13.634 20.5064 13.1622 21.228 13.1622 22.0606C13.1622 23.3095 14.1613 24.3086 15.4102 24.3086C16.6591 24.3086 17.6582 23.3095 17.6582 22.0606C17.686 20.8394 16.6869 19.8403 15.438 19.8126Z" fill="#26C296"/>
<path d="M7.94646 13.4556L4.42181 14.6768C4.00551 14.1772 3.39494 13.8442 2.67336 13.8442C1.42447 13.8442 0.425354 14.8433 0.425354 16.0922C0.425354 17.3411 1.42447 18.3402 2.67336 18.3402C3.92225 18.3402 4.92137 17.3411 4.92137 16.0922C4.92137 15.9812 4.89361 15.8424 4.89361 15.7314L8.30726 14.538C8.61254 14.427 8.75131 14.1217 8.66805 13.8164C8.58479 13.5112 8.25175 13.3446 7.94646 13.4556Z" fill="#26C296"/>
<path d="M23.154 11.0417C22.0994 11.0417 21.239 11.7633 20.9892 12.7069H18.2972C17.9919 12.7069 17.7144 12.9567 17.7144 13.262C17.7144 13.5673 17.9641 13.8171 18.2972 13.8171H20.9615C21.2113 14.7884 22.0994 15.4823 23.1262 15.4823C24.3751 15.4823 25.3742 14.4831 25.3742 13.2342C25.3742 11.9854 24.4029 11.0417 23.154 11.0417Z" fill="#26C296"/>
<path d="M13.1642 16.2038C15.2488 16.2038 16.9386 14.5264 16.9386 12.4571C16.9386 10.3879 15.2488 8.71045 13.1642 8.71045C11.0796 8.71045 9.38977 10.3879 9.38977 12.4571C9.38977 14.5264 11.0796 16.2038 13.1642 16.2038Z" fill="#26C296"/>
<path d="M9.7504 8.26737L8.52926 7.35152C8.64028 7.07399 8.69578 6.79646 8.69578 6.49117C8.69578 5.24228 7.69667 4.24316 6.44778 4.24316C5.19888 4.24316 4.19977 5.24228 4.19977 6.49117C4.19977 7.74006 5.19888 8.73918 6.44778 8.73918C6.97509 8.73918 7.44689 8.54491 7.83543 8.26737L9.05657 9.21098C9.16759 9.29424 9.2786 9.32199 9.38961 9.32199C9.55613 9.32199 9.72265 9.23873 9.83366 9.09997C10.0557 8.82244 10.0002 8.46165 9.7504 8.26737Z" fill="#26C296"/>
<path d="M15.5256 8.48872C15.6088 8.54422 15.7198 8.57198 15.8309 8.57198C16.0251 8.57198 16.2194 8.46097 16.3304 8.29445L18.1066 5.35261C18.3564 5.43587 18.6062 5.49138 18.856 5.49138C20.1048 5.49138 21.104 4.49226 21.104 3.24337C21.104 1.99448 20.1048 0.995361 18.856 0.995361C17.6071 0.995361 16.6079 1.99448 16.6079 3.24337C16.6079 3.79843 16.83 4.29799 17.163 4.71429L15.3591 7.71163C15.1648 7.96141 15.248 8.3222 15.5256 8.48872Z" fill="#26C296"/>
</svg>
