<svg width="131" height="17" viewBox="0 0 131 17" fill="none" xmlns="http://www.w3.org/2000/svg">
<path fill-rule="evenodd" clip-rule="evenodd" d="M12.118 6.20556L6.93565 11.5998C6.64711 11.9002 6.18543 11.9002 5.89688 11.5998L3.3115 8.88538C3.02296 8.58505 3.02296 8.09991 3.3115 7.79959C3.60005 7.49926 4.06173 7.49926 4.35027 7.79959L6.42781 9.97116L11.0907 5.11977C11.3793 4.81945 11.841 4.81945 12.1295 5.11977C12.4065 5.4201 12.4065 5.90524 12.118 6.20556Z" fill="#26C296"/>
<rect x="0.819029" y="1.19708" width="13.8611" height="13.8611" rx="2.77222" stroke="#26C296" stroke-width="1.38611"/>
<path d="M24.2554 12.3429C23.5309 12.3429 22.91 12.1729 22.3925 11.8328C21.8824 11.4927 21.5239 11.027 21.3169 10.4356L22.204 9.92551C22.5071 10.8644 23.1983 11.3338 24.2776 11.3338C24.8099 11.3338 25.2165 11.2266 25.4974 11.0122C25.7783 10.7904 25.9188 10.4984 25.9188 10.1362C25.9188 9.76657 25.7783 9.48935 25.4974 9.30453C25.2165 9.11972 24.747 8.92381 24.0891 8.71682C23.7638 8.61332 23.5162 8.532 23.3461 8.47286C23.1761 8.40633 22.9617 8.31023 22.703 8.18455C22.4516 8.05149 22.2631 7.91842 22.1374 7.78535C22.0118 7.64489 21.8972 7.46377 21.7937 7.242C21.6976 7.02022 21.6495 6.76887 21.6495 6.48795C21.6495 5.81523 21.8861 5.28296 22.3592 4.89115C22.8323 4.49195 23.409 4.29235 24.0891 4.29235C24.7027 4.29235 25.2349 4.4476 25.6859 4.75809C26.1442 5.06857 26.488 5.47886 26.7172 5.98895L25.8522 6.48795C25.5196 5.68955 24.9318 5.29035 24.0891 5.29035C23.6677 5.29035 23.3276 5.39385 23.0689 5.60084C22.8102 5.80783 22.6808 6.08875 22.6808 6.4436C22.6808 6.78366 22.8028 7.0424 23.0467 7.21982C23.2907 7.39724 23.7121 7.58206 24.3109 7.77426C24.5252 7.8408 24.6768 7.88885 24.7655 7.91842C24.8542 7.94799 24.991 7.99974 25.1758 8.07366C25.368 8.14759 25.5085 8.20673 25.5972 8.25109C25.6859 8.29544 25.8042 8.35828 25.952 8.4396C26.1073 8.52092 26.2218 8.59854 26.2958 8.67246C26.3697 8.74639 26.4547 8.8388 26.5508 8.94969C26.6543 9.05318 26.7282 9.16037 26.7726 9.27126C26.817 9.38215 26.8539 9.51152 26.8835 9.65937C26.9204 9.79983 26.9389 9.95138 26.9389 10.114C26.9389 10.7941 26.6913 11.3375 26.196 11.7441C25.7007 12.1433 25.0538 12.3429 24.2554 12.3429ZM28.8667 9.87006C28.9628 10.3654 29.1882 10.7498 29.5431 11.0233C29.9053 11.2968 30.3489 11.4336 30.8738 11.4336C31.6056 11.4336 32.1379 11.1638 32.4706 10.6241L33.2911 11.0898C32.7515 11.9252 31.9383 12.3429 30.8516 12.3429C29.9719 12.3429 29.2548 12.0694 28.7003 11.5223C28.1533 10.9679 27.8798 10.2693 27.8798 9.42651C27.8798 8.59115 28.1496 7.89624 28.6892 7.3418C29.2289 6.78735 29.9275 6.51013 30.785 6.51013C31.5982 6.51013 32.2599 6.79844 32.77 7.37506C33.2874 7.94429 33.5462 8.6318 33.5462 9.4376C33.5462 9.57806 33.5351 9.72221 33.5129 9.87006H28.8667ZM30.785 7.41942C30.2676 7.41942 29.8388 7.56727 29.4987 7.86297C29.1587 8.15129 28.948 8.5394 28.8667 9.02731H32.5704C32.489 8.50243 32.282 8.10323 31.9494 7.82971C31.6167 7.55618 31.2286 7.41942 30.785 7.41942ZM37.4163 6.51013C38.0668 6.51013 38.588 6.71712 38.9798 7.13111C39.3716 7.5377 39.5675 8.09215 39.5675 8.79444V12.1987H38.6028V8.84989C38.6028 8.39894 38.4808 8.05149 38.2369 7.80753C37.9929 7.55618 37.6565 7.43051 37.2278 7.43051C36.7473 7.43051 36.3591 7.58206 36.0634 7.88515C35.7677 8.18086 35.6199 8.6392 35.6199 9.26017V12.1987H34.6552V6.65429H35.6199V7.45269C36.0117 6.82432 36.6105 6.51013 37.4163 6.51013ZM45.5051 4.43651H46.4698V12.1987H45.5051V11.2451C45.0246 11.977 44.326 12.3429 43.4093 12.3429C42.6331 12.3429 41.9714 12.062 41.4244 11.5001C40.8773 10.9309 40.6038 10.2397 40.6038 9.42651C40.6038 8.61332 40.8773 7.92581 41.4244 7.36397C41.9714 6.79475 42.6331 6.51013 43.4093 6.51013C44.326 6.51013 45.0246 6.87606 45.5051 7.60793V4.43651ZM43.5313 11.4114C44.0931 11.4114 44.5626 11.2229 44.9396 10.8459C45.3166 10.4615 45.5051 9.98835 45.5051 9.42651C45.5051 8.86467 45.3166 8.39524 44.9396 8.01822C44.5626 7.6338 44.0931 7.4416 43.5313 7.4416C42.9768 7.4416 42.5111 7.6338 42.1341 8.01822C41.7571 8.39524 41.5686 8.86467 41.5686 9.42651C41.5686 9.98835 41.7571 10.4615 42.1341 10.8459C42.5111 11.2229 42.9768 11.4114 43.5313 11.4114ZM55.3832 11.5001C54.814 12.062 54.1228 12.3429 53.3096 12.3429C52.4964 12.3429 51.8052 12.062 51.236 11.5001C50.6741 10.9383 50.3932 10.2471 50.3932 9.42651C50.3932 8.60593 50.6741 7.91472 51.236 7.35289C51.8052 6.79105 52.4964 6.51013 53.3096 6.51013C54.1228 6.51013 54.814 6.79105 55.3832 7.35289C55.9525 7.91472 56.2371 8.60593 56.2371 9.42651C56.2371 10.2471 55.9525 10.9383 55.3832 11.5001ZM53.3096 11.4003C53.8641 11.4003 54.3298 11.2118 54.7068 10.8348C55.0838 10.4578 55.2723 9.98835 55.2723 9.42651C55.2723 8.86467 55.0838 8.39524 54.7068 8.01822C54.3298 7.6412 53.8641 7.45269 53.3096 7.45269C52.7626 7.45269 52.3005 7.6412 51.9235 8.01822C51.5465 8.39524 51.358 8.86467 51.358 9.42651C51.358 9.98835 51.5465 10.4578 51.9235 10.8348C52.3005 11.2118 52.7626 11.4003 53.3096 11.4003ZM60.1355 6.51013C60.7861 6.51013 61.3072 6.71712 61.699 7.13111C62.0909 7.5377 62.2868 8.09215 62.2868 8.79444V12.1987H61.322V8.84989C61.322 8.39894 61.2 8.05149 60.9561 7.80753C60.7121 7.55618 60.3758 7.43051 59.947 7.43051C59.4665 7.43051 59.0784 7.58206 58.7827 7.88515C58.487 8.18086 58.3391 8.6392 58.3391 9.26017V12.1987H57.3744V6.65429H58.3391V7.45269C58.7309 6.82432 59.3297 6.51013 60.1355 6.51013ZM67.5368 11.2229H71.1407V12.1987H66.5056V4.43651H71.0853V5.41233H67.5368V7.79644H70.808V8.76117H67.5368V11.2229ZM78.2739 6.51013C78.8949 6.51013 79.3976 6.71343 79.782 7.12002C80.1664 7.51922 80.3586 8.06257 80.3586 8.75009V12.1987H79.3939V8.78335C79.3939 8.35458 79.283 8.02192 79.0612 7.78535C78.8394 7.54879 78.5437 7.43051 78.1741 7.43051C77.7601 7.43051 77.4275 7.57097 77.1761 7.85189C76.9321 8.12541 76.8102 8.54679 76.8102 9.11602V12.1987H75.8454V8.78335C75.8454 8.35458 75.7382 8.02192 75.5239 7.78535C75.3169 7.54879 75.0323 7.43051 74.67 7.43051C74.2634 7.43051 73.9234 7.57097 73.6498 7.85189C73.3837 8.1328 73.2506 8.55418 73.2506 9.11602V12.1987H72.2859V6.65429H73.2506V7.39724C73.6277 6.80583 74.1784 6.51013 74.9029 6.51013C75.6495 6.51013 76.1929 6.82432 76.5329 7.45269C76.9174 6.82432 77.4977 6.51013 78.2739 6.51013ZM86.2871 6.65429H87.2518V12.1987H86.2871V11.2451C85.8066 11.977 85.108 12.3429 84.1913 12.3429C83.4151 12.3429 82.7534 12.062 82.2064 11.5001C81.6593 10.9309 81.3858 10.2397 81.3858 9.42651C81.3858 8.61332 81.6593 7.92581 82.2064 7.36397C82.7534 6.79475 83.4151 6.51013 84.1913 6.51013C85.108 6.51013 85.8066 6.87606 86.2871 7.60793V6.65429ZM84.3133 11.4114C84.8751 11.4114 85.3445 11.2229 85.7216 10.8459C86.0986 10.4615 86.2871 9.98835 86.2871 9.42651C86.2871 8.86467 86.0986 8.39524 85.7216 8.01822C85.3445 7.6338 84.8751 7.4416 84.3133 7.4416C83.7588 7.4416 83.2931 7.6338 82.9161 8.01822C82.5391 8.39524 82.3505 8.86467 82.3505 9.42651C82.3505 9.98835 82.5391 10.4615 82.9161 10.8459C83.2931 11.2229 83.7588 11.4114 84.3133 11.4114ZM89.2014 5.6452C89.0166 5.6452 88.8613 5.58236 88.7357 5.45669C88.61 5.33101 88.5472 5.17946 88.5472 5.00204C88.5472 4.82462 88.61 4.67307 88.7357 4.5474C88.8613 4.41433 89.0166 4.3478 89.2014 4.3478C89.3788 4.3478 89.5304 4.41433 89.656 4.5474C89.7817 4.67307 89.8446 4.82462 89.8446 5.00204C89.8446 5.17946 89.7817 5.33101 89.656 5.45669C89.5304 5.58236 89.3788 5.6452 89.2014 5.6452ZM88.7135 12.1987V6.65429H89.6782V12.1987H88.7135ZM91.15 12.1987V4.10384H92.1147V12.1987H91.15ZM100.95 6.65429H101.914V12.1987H100.95V11.2451C100.469 11.977 99.7704 12.3429 98.8538 12.3429C98.0775 12.3429 97.4159 12.062 96.8688 11.5001C96.3218 10.9309 96.0483 10.2397 96.0483 9.42651C96.0483 8.61332 96.3218 7.92581 96.8688 7.36397C97.4159 6.79475 98.0775 6.51013 98.8538 6.51013C99.7704 6.51013 100.469 6.87606 100.95 7.60793V6.65429ZM98.9757 11.4114C99.5376 11.4114 100.007 11.2229 100.384 10.8459C100.761 10.4615 100.95 9.98835 100.95 9.42651C100.95 8.86467 100.761 8.39524 100.384 8.01822C100.007 7.6338 99.5376 7.4416 98.9757 7.4416C98.4213 7.4416 97.9556 7.6338 97.5785 8.01822C97.2015 8.39524 97.013 8.86467 97.013 9.42651C97.013 9.98835 97.2015 10.4615 97.5785 10.8459C97.9556 11.2229 98.4213 11.4114 98.9757 11.4114ZM104.197 8.15129C104.197 8.36567 104.304 8.5394 104.518 8.67246C104.733 8.79814 104.991 8.90163 105.295 8.98295C105.598 9.05688 105.901 9.14559 106.204 9.24909C106.507 9.34519 106.766 9.51522 106.98 9.75917C107.194 9.99574 107.302 10.3025 107.302 10.6796C107.302 11.1822 107.106 11.5851 106.714 11.8882C106.33 12.1913 105.834 12.3429 105.228 12.3429C104.688 12.3429 104.226 12.2246 103.842 11.988C103.458 11.7515 103.184 11.4373 103.021 11.0455L103.853 10.5687C103.942 10.8348 104.108 11.0455 104.352 11.2007C104.596 11.356 104.888 11.4336 105.228 11.4336C105.546 11.4336 105.808 11.3745 106.015 11.2562C106.222 11.1305 106.326 10.9383 106.326 10.6796C106.326 10.4652 106.219 10.2951 106.004 10.1695C105.79 10.0364 105.531 9.9329 105.228 9.85897C104.925 9.77766 104.622 9.68525 104.319 9.58175C104.016 9.47826 103.757 9.30823 103.543 9.07166C103.328 8.8351 103.221 8.532 103.221 8.16237C103.221 7.68186 103.406 7.28635 103.775 6.97586C104.152 6.66537 104.622 6.51013 105.184 6.51013C105.635 6.51013 106.034 6.61363 106.381 6.82062C106.736 7.02022 107.002 7.30114 107.18 7.66337L106.37 8.11802C106.171 7.64489 105.775 7.40833 105.184 7.40833C104.91 7.40833 104.677 7.47486 104.485 7.60793C104.293 7.7336 104.197 7.91472 104.197 8.15129ZM117.747 6.65429H118.757L117.038 12.1987H116.051L114.753 8.09584L113.456 12.1987H112.469L110.75 6.65429H111.759L112.979 10.8681L114.288 6.65429H115.219L116.528 10.8792L117.747 6.65429ZM120.209 9.87006C120.305 10.3654 120.531 10.7498 120.886 11.0233C121.248 11.2968 121.691 11.4336 122.216 11.4336C122.948 11.4336 123.48 11.1638 123.813 10.6241L124.634 11.0898C124.094 11.9252 123.281 12.3429 122.194 12.3429C121.314 12.3429 120.597 12.0694 120.043 11.5223C119.496 10.9679 119.222 10.2693 119.222 9.42651C119.222 8.59115 119.492 7.89624 120.032 7.3418C120.571 6.78735 121.27 6.51013 122.128 6.51013C122.941 6.51013 123.602 6.79844 124.113 7.37506C124.63 7.94429 124.889 8.6318 124.889 9.4376C124.889 9.57806 124.878 9.72221 124.855 9.87006H120.209ZM122.128 7.41942C121.61 7.41942 121.181 7.56727 120.841 7.86297C120.501 8.15129 120.291 8.5394 120.209 9.02731H123.913C123.832 8.50243 123.625 8.10323 123.292 7.82971C122.959 7.55618 122.571 7.41942 122.128 7.41942ZM125.998 12.1987V4.10384H126.962V12.1987H125.998ZM128.434 12.1987V4.10384H129.399V12.1987H128.434Z" fill="#73738D"/>
</svg>
