<svg width="18" height="18" viewBox="0 0 18 18" fill="none" xmlns="http://www.w3.org/2000/svg">
<g opacity="0.4">
<path d="M14.2748 9.69953C14.3092 9.49697 14.3092 9.26037 14.3092 9.0238C14.3092 8.78723 14.2748 8.58464 14.2748 8.34807L15.7259 7.23318C15.8643 7.13189 15.8987 6.96299 15.7951 6.79402L14.4128 4.46263C14.3436 4.32735 14.1364 4.26007 13.998 4.32735L12.2702 5.00311C11.9246 4.73289 11.5102 4.49628 11.0955 4.32735L10.8535 2.53677C10.8191 2.40182 10.6807 2.26654 10.5079 2.26654H7.74332C7.57055 2.26654 7.43219 2.40182 7.39775 2.53677L7.12135 4.32735C6.70659 4.49628 6.32659 4.73285 5.94627 5.00311L4.21841 4.32735C4.04561 4.26007 3.87282 4.32735 3.80365 4.46263L2.42136 6.79406C2.35252 6.92897 2.38689 7.13189 2.49053 7.23321L3.97652 8.34807C3.97652 8.58464 3.94208 8.78723 3.94208 9.0238C3.94208 9.26037 3.97652 9.46296 3.97652 9.69953L2.52539 10.8144C2.38699 10.9157 2.35262 11.0846 2.45619 11.2536L3.83848 13.585C3.90768 13.7202 4.11488 13.7875 4.25324 13.7202L5.98112 13.0445C6.32669 13.3147 6.74112 13.5513 7.15585 13.7202L7.43225 15.5108C7.46698 15.6798 7.60502 15.7811 7.77782 15.7811H10.5424C10.7152 15.7811 10.8536 15.6458 10.888 15.5108L11.1647 13.7202C11.5792 13.5513 11.9595 13.3147 12.3394 13.0445L14.0673 13.7202C14.2401 13.7875 14.4129 13.7202 14.4821 13.585L15.8644 11.2535C15.9335 11.1186 15.8988 10.9157 15.7952 10.8144L14.2748 9.69953ZM9.12564 11.3889C7.77778 11.3889 6.70666 10.3416 6.70666 9.0238C6.70666 7.70596 7.77778 6.65875 9.12564 6.65875C10.4735 6.65875 11.5446 7.70596 11.5446 9.0238C11.5446 10.3416 10.4735 11.3889 9.12564 11.3889Z" fill="#73738D"/>
</g>
</svg>
