<svg width="29" height="23" viewBox="0 0 29 23" fill="none" xmlns="http://www.w3.org/2000/svg">
<path d="M8.86481 11.1568C8.62793 10.7126 8.15417 10.4461 7.6508 10.4461H6.08147C6.4664 6.15269 10.0492 2.77716 14.4315 2.77716C15.8527 2.77716 17.2444 3.13248 18.488 3.84312C19.1395 4.22805 19.9685 3.99117 20.3535 3.31014C20.7384 2.65872 20.5015 1.82964 19.8205 1.44471C18.1919 0.526806 16.3265 0.0234375 14.4315 0.0234375C8.5391 0.0234375 3.74229 4.64259 3.38697 10.4165H1.72881C1.22545 10.4165 0.751687 10.683 0.514807 11.1272C0.277928 11.5713 0.307538 12.1043 0.574027 12.5188L3.53502 17.0788C3.80151 17.4637 4.21605 17.7006 4.68981 17.7006C5.16357 17.7006 5.5781 17.4637 5.84459 17.0788L8.80559 12.5188C9.10169 12.1339 9.10169 11.5713 8.86481 11.1568Z" fill="#26C296"/>
<path d="M28.2931 9.70617L25.3321 5.14624C24.8287 4.37638 23.5555 4.37638 23.0522 5.14624L20.0616 9.70617C19.7951 10.1207 19.7655 10.6537 20.0023 11.0978C20.2392 11.542 20.713 11.8085 21.2163 11.8085H22.7857C22.4007 16.1019 18.8179 19.4774 14.4357 19.4774C13.044 19.4774 11.6227 19.1221 10.3791 18.4115C9.72769 18.0562 8.89861 18.2931 8.51368 18.9445C8.15836 19.5959 8.39524 20.425 9.04666 20.8099C10.7048 21.7278 12.5406 22.2016 14.4357 22.2016C20.328 22.2016 25.1248 17.5824 25.5098 11.8085H27.1383C27.6417 11.8085 28.1154 11.542 28.3523 11.0978C28.5596 10.6537 28.5596 10.1207 28.2931 9.70617Z" fill="#26C296"/>
</svg>
