<svg width="13" height="12" viewBox="0 0 13 12" fill="none" xmlns="http://www.w3.org/2000/svg">
<path d="M8.1911 7.12744V7.23165C8.1911 8.01326 7.55279 8.65158 6.77118 8.65158C5.98957 8.65158 5.35125 8.01326 5.35125 7.23165V7.12744L0.843972 6.25464C0.752784 6.24161 0.661596 6.21556 0.583435 6.16345V10.0976C0.583435 11.0615 1.36504 11.8431 2.32903 11.8431H11.2264C12.1903 11.8431 12.9719 11.0615 12.9719 10.0976V6.16345C12.8938 6.20253 12.8026 6.22859 12.7114 6.25464L8.1911 7.12744Z" fill="#73738D"/>
<path d="M11.2394 2.63342H9.6501V1.98208C9.6501 0.979015 8.82941 0.158325 7.82635 0.158325H5.716C4.71294 0.158325 3.89225 0.979015 3.89225 1.98208V2.63342H2.30298C1.35202 2.63342 0.583435 3.402 0.583435 4.35296V5.08246C0.583435 5.31695 0.752784 5.51235 0.97424 5.56446L5.35125 6.4112C5.36428 5.64262 5.98957 5.03036 6.77118 5.03036C7.53976 5.03036 8.17807 5.64262 8.1911 6.4112L12.5551 5.56446C12.7896 5.51235 12.9589 5.31695 12.9589 5.08246V4.33993C12.9589 3.402 12.1903 2.63342 11.2394 2.63342ZM5.23401 1.96905C5.23401 1.70852 5.45547 1.50009 5.70298 1.50009H7.82635C8.08688 1.50009 8.29531 1.72154 8.29531 1.96905V2.62039H5.23401V1.96905Z" fill="#73738D"/>
<path d="M7.488 7.23136V6.44975C7.488 6.05895 7.16233 5.73328 6.77153 5.73328C6.38072 5.73328 6.05505 6.05895 6.05505 6.44975V7.23136C6.05505 7.62217 6.38072 7.94784 6.77153 7.94784C7.16233 7.94784 7.488 7.62217 7.488 7.23136Z" fill="#73738D"/>
</svg>
